<svg width="32" height="32" viewBox="0 0 32 32" fill="none" xmlns="http://www.w3.org/2000/svg">
  <defs>
    <linearGradient id="gtg" x1="4" y1="2" x2="28" y2="30" gradientUnits="userSpaceOnUse">
      <stop offset="0" stop-color="#B6A9FF"/>
      <stop offset="0.55" stop-color="#7C6AF7"/>
      <stop offset="1" stop-color="#4ECDC4"/>
    </linearGradient>
  </defs>
  <rect width="32" height="32" rx="8" fill="#0A0A0F"/>
  <path
    d="M16 5c-4.4 0-7.9 3.3-7.9 7.8v10.1c0 1.5 1.8 2.3 2.9 1.4l1.6-1.2c.4-.3 1-.3 1.4 0l1.6 1.2c.4.3 1 .3 1.4 0l1.6-1.2c.4-.3 1-.3 1.4 0l1.6 1.2c1.2.9 2.9.1 2.9-1.4V12.8C23.9 8.3 20.4 5 16 5Z"
    fill="url(#gtg)"
  />
  <circle cx="12.7" cy="14" r="1.15" fill="#0A0A0F"/>
  <circle cx="19.3" cy="14" r="1.15" fill="#0A0A0F"/>
</svg>
